<?xml version="1.0" encoding="utf-8"?>
<!-- Generator: Adobe Illustrator 21.0.0, SVG Export Plug-In . SVG Version: 6.00 Build 0)  -->
<svg version="1.1" id="Layer_1" xmlns="http://www.w3.org/2000/svg" xmlns:xlink="http://www.w3.org/1999/xlink" x="0px" y="0px"
	 viewBox="0 0 3831.1 2204.5" style="enable-background:new 0 0 3831.1 2204.5;" xml:space="preserve">
<style type="text/css">
	.st0{fill-rule:evenodd;clip-rule:evenodd;}
</style>
<g>
	<path fill="#000" class="st0" d="M1649.1,820.5c0-10.5-8.5-19-19-19s-19,8.5-19,19c0,10.5,8.5,19,19,19S1649.1,831,1649.1,820.5z M1555.6,1015
		c1.5,0.9,4.1,2.1,5.5,3.5c1.7,1.6,5,0,5,0l178.5-118l2-8.5l1-5l-94.5-32l-6.5-0.5l-8,3.5l-84,154.5
		C1554.6,1012.5,1554.1,1014.1,1555.6,1015z M1276.6,1299.5c0,0,43.5-69.1,47-74.5c3.9-6-3-10-3-10s-8.5-3.6-22-11
		c-73-40.2-113-9-113-9c0,0-40.2,25.5-55,34c4.2,5.5,0.5,12,0.5,12l127,64C1270.2,1310.2,1276.6,1299.5,1276.6,1299.5z
		 M1550.1,747.5c1.6-0.7,75.7,29,80.2,23.9c9.7-11,8.7-9.2,17.8-20.4c5.8-7.2,18.7-5.3,26-1.5c9.4,4.9,6.4,17.5,5,22l255-126.5
		c0,0,148.5-71,144.5-71s-719.5-245.5-719.5-245.5l-334,97l131,215L1550.1,747.5z M2825.2,741c-7.4-38-20.1-86-20.1-86l-92-169.5
		l-45.4-165h117.4V0h-551.5v320.5h186.6c-7.2,4.5-12.6,8-12.6,8l42,41.5l36.5-18l17,34l-15,8.5l7,8.5l4.5,12l1.5,8.5l14.5-4.5
		l72,153.5l-2,3.5l0.5,9c0,0-27,14-31.5,14c-4.5,0,20,129.5,20,129.5s5.3,5,13.2,12.5h-78.2l1.5-4l40-104l-6.5-47
		c0,0-318,62.5-321.5,65c-3.5,2.5-15.5,5-15.5,5l-131,86l-78,53.5l-29,25.5l-231.7,417.8l0.2-7.3c0,0-6.5,1-19,1.5
		c-12.5,0.5-18.5-12.5-20-21c-1.3-7.2,5.8-26.4,7.9-32c0.1,0,0.1,0,0.1,0l0.2-0.7c0.2-0.5,0.3-0.8,0.3-0.8l-0.1,0l60.1-222
		l-11.5-7.5l-117,77l-147.5,95.5c0,0-18.5,12.5-33.5-4c-15-16.5-23.5,8.5-23.5,8.5l-31,39l-90.4-22.5l22.9-9l107.5-69.5l109-145
		c0,0,28.2-57.2,36-67c-9.8-0.5-23.7-0.5-26.5-14c-2.8-13.5,8.5-21.5,8.5-21.5l8-19l-27.5-40.5l-58-3.5l-77,34L1240.6,1044l-12,36.5
		c0,0,4,28.2,6,31c1.7-2.2,0.2-4.8,11-10s21.5,6,21.5,6l23.2,43l-0.2,0.5l100,40.5c0,0,13.5-1,25.5,9.5c18.5,7,101,34.5,101,34.5
		s10.7,2.4,14.8,0.6c2.6-0.4,5.2-0.6,7.9-0.6c30.8,0,55.7,25,55.7,55.8c0,30.8-25,55.7-55.7,55.7c-15.7,0-29.8-6.5-39.9-16.9
		c-9.5-13.4-18.7-11.6-26.3-9.1c0,0-147.5,36.5-151,38c-3.5,1.5-12.5,4-18.5,5c-3,3.5-17.5,3-17.5,3s-249.6,62-395.6,98.2
		c-58.8,14.6-100.8,23.3-102.9,24.8c-7.5,5-13,2.5-16,3c-3,0.5-26,11-26,11s-34.5,19.5-57,33c-20.5,27.5-44.5,22.5-44.5,22.5
		l-11-2.5c0,0-10.5-3.5-17-10.5c-20-21.6-5.5-43-4.5-49.5c1-6.5,14.5-18,14.5-18s-1.5-16.5,1.5-21.5c3-5,5.5,1,5.5,1l20,4l47-29.5
		l58-35l94-52l220-135.5l81-48l-26.5-128.5l-123-221l-391.5-72l-448,128c0,0-168,531.8-164,552s168,707.5,168,707.5l688,72
		c0,0,495.6-56,527.5-52c31.9,4,192-316,192-316s-1.1-9.1-3.1-25h601.6v-215l19.5-8.5l121.5-324.1v944.6h1516V741H2825.2z
		 M1079.1,1277l-78,102.5c-5.5,10.2,6.5,9,6.5,9l192-48.5l3-10.5c0,0-109.5-55-111-55.5C1090.1,1273.5,1079.1,1277,1079.1,1277z
		 M1579.1,1291.8c0-21.7-17.6-39.3-39.3-39.3s-39.2,17.6-39.2,39.3c0,21.7,17.6,39.2,39.2,39.2S1579.1,1313.4,1579.1,1291.8z
		 M1342.1,1312c0,0,82.8-20,86.5-21c3.8-1,18.3-5,20-7.5c15-19.2,1.8-29.2-3.5-31.5c-5.2-2.2-56.7-12-65.5-14.5
		c-8.7-2.5-16.5,7-16.5,7l-31,53.5C1326.6,1314.2,1342.1,1312,1342.1,1312z M970.1,1328.5c-5.4,3.5-27.9,16.4-54.9,32.7
		c-51.5,31.1-120.1,71.8-120.1,71.8h-1c0,0-1.2,7.3,2,7c3.2-0.3,116-27,116-27s5.7-6,8.5-6.5c2.8-0.5,55.5-70,55.5-70
		S976.3,1327.5,970.1,1328.5z"/>
</g>
</svg>
